<?xml version="1.0" encoding="UTF-8"?>
<!-- SPDX-License-Identifier: Apache-2.0 -->
<!-- SPDX-FileCopyrightText: 2026 Tenstorrent USA, Inc. -->
<svg xmlns="http://www.w3.org/2000/svg" width="720" height="652" viewBox="0 0 720 652" role="img" aria-labelledby="title desc">
<title id="title">SEP AXI4 connectivity</title>
<desc id="desc">Columns are initiators and rows are targets. A filled circle marks a connection; a dash marks no connection. CPU IFI reaches Scratch SRAM and Boot ROM. CPU LSU reaches every target except CPU TCM. CPU DBG reaches every crossbar target except CPU TCM. DMA reaches every crossbar target except DMA CSR and Entropy Pool. System Interface reaches every crossbar target except CPU TCM, Reset Ctrl and System Periph. Boot ROM connects only to CPU IFI and CPU LSU, outside the crossbar.</desc>
<defs>
<marker id="ae" markerUnits="userSpaceOnUse" markerWidth="10" markerHeight="9" refX="7" refY="4.5" orient="auto"><path d="M0,0 L10,4.5 L0,9 Z" fill="#103525"/></marker>
<marker id="as" markerUnits="userSpaceOnUse" markerWidth="10" markerHeight="9" refX="3" refY="4.5" orient="auto"><path d="M10,0 L0,4.5 L10,9 Z" fill="#103525"/></marker>
<marker id="ge" markerUnits="userSpaceOnUse" markerWidth="8" markerHeight="7" refX="5" refY="3.5" orient="auto"><path d="M0,0 L8,3.5 L0,7 Z" fill="#5b6670"/></marker>
<marker id="gs" markerUnits="userSpaceOnUse" markerWidth="8" markerHeight="7" refX="3" refY="3.5" orient="auto"><path d="M8,0 L0,3.5 L8,7 Z" fill="#5b6670"/></marker>
<marker id="je" markerUnits="userSpaceOnUse" markerWidth="8" markerHeight="7" refX="5" refY="3.5" orient="auto"><path d="M0,0 L8,3.5 L0,7 Z" fill="#42759b"/></marker>
<marker id="js" markerUnits="userSpaceOnUse" markerWidth="8" markerHeight="7" refX="3" refY="3.5" orient="auto"><path d="M8,0 L0,3.5 L8,7 Z" fill="#42759b"/></marker>
<style>
text { font-family: Arial, sans-serif; font-size: 15px; fill: #484848; }
.t { fill: #484848; }
.b { font-size: 17px; font-weight: bold; fill: #103525; }
.bs { font-size: 15px; font-weight: bold; fill: #103525; }
.h { font-size: 22px; font-weight: bold; fill: #103525; }
.s { font-size: 13px; fill: #484848; }
.si { font-size: 13px; font-style: italic; fill: #484848; }
.pmt { font-size: 12px; font-weight: bold; fill: #ffffff; }
.pst { font-size: 12px; font-weight: bold; fill: #103525; }
.pjt { font-size: 12px; font-weight: bold; fill: #1d4b6e; }
.pct { font-size: 12px; font-weight: bold; fill: #1f5c57; }
.pm { fill: #103525; stroke: #103525; stroke-width: 1.2; }
.ps { fill: #ffffff; stroke: #103525; stroke-width: 1.2; }
.pj { fill: #e8f3ff; stroke: #42759b; stroke-width: 1.2; }
.pc { fill: #d9f0ee; stroke: #2f7f79; stroke-width: 1.2; }
.smu { fill: #ffffff; stroke: #77736b; stroke-width: 1.5; }
.network { fill: #e8f0e8; stroke: #336633; stroke-width: 2; }
.fabric { fill: #fff0cc; stroke: #937027; stroke-width: 2; }
.core { fill: #ffffff; stroke: #937027; stroke-width: 2; }
.future { fill: #ffffff; stroke: #937027; stroke-width: 2; }
.nostroke { stroke: none; }
.fut { fill: none; stroke-dasharray: 7 5; }
.opt { stroke-dasharray: 7 5; }
.hatch { fill: none; stroke: #103525; stroke-opacity: 0.16; stroke-width: 1.2; }
.external { fill: #f2f2f2; stroke: #77736b; stroke-width: 1.5; }
.axi { fill: none; stroke: #103525; stroke-width: 2.5; marker-start: url(#as); marker-end: url(#ae); }
.axio { fill: none; stroke: #103525; stroke-width: 2.5; stroke-dasharray: 8 5; marker-start: url(#as); marker-end: url(#ae); }
.sig { fill: none; stroke: #5b6670; stroke-width: 1.5; marker-start: url(#gs); marker-end: url(#ge); }
.sigo { fill: none; stroke: #5b6670; stroke-width: 1.5; marker-end: url(#ge); }
.jtag { fill: none; stroke: #42759b; stroke-width: 1.8; marker-end: url(#je); }
.jtagb { fill: none; stroke: #42759b; stroke-width: 1.8; marker-start: url(#js); marker-end: url(#je); }
.sigplain { fill: none; stroke: #5b6670; stroke-width: 1.5; }
</style>
</defs>
<rect width="720" height="652" fill="#ffffff"/>
<text class="bs" x="14" y="26" text-anchor="start">Crossbar targets</text>
<text class="bs" x="470" y="26" text-anchor="middle">Initiators</text>
<rect class="fabric" x="14" y="38" width="692" height="56" rx="5"/>
<text class="bs" x="281.2" y="71" text-anchor="middle">CPU IFI</text>
<text class="bs" x="375.6" y="71" text-anchor="middle">CPU LSU</text>
<text class="bs" x="470" y="71" text-anchor="middle">CPU DBG</text>
<text class="bs" x="564.4" y="71" text-anchor="middle">DMA</text>
<text class="bs" x="658.8" y="63" text-anchor="middle">System</text>
<text class="bs" x="658.8" y="79" text-anchor="middle">Interface</text>
<rect x="14" y="100" width="692" height="40" rx="3" fill="#f8f4eb"/>
<text class="t" x="30" y="125" text-anchor="start">CPU TCM</text>
<path d="M274.2,120 L288.2,120" stroke="#5b6670" stroke-width="2"/>
<path d="M368.6,120 L382.6,120" stroke="#5b6670" stroke-width="2"/>
<path d="M463,120 L477,120" stroke="#5b6670" stroke-width="2"/>
<circle cx="564.4" cy="120" r="6.5" fill="#103525"/>
<path d="M651.8,120 L665.8,120" stroke="#5b6670" stroke-width="2"/>
<text class="t" x="30" y="167" text-anchor="start">Scratch SRAM</text>
<circle cx="281.2" cy="162" r="6.5" fill="#103525"/>
<circle cx="375.6" cy="162" r="6.5" fill="#103525"/>
<circle cx="470" cy="162" r="6.5" fill="#103525"/>
<circle cx="564.4" cy="162" r="6.5" fill="#103525"/>
<circle cx="658.8" cy="162" r="6.5" fill="#103525"/>
<rect x="14" y="184" width="692" height="40" rx="3" fill="#f8f4eb"/>
<text class="t" x="30" y="209" text-anchor="start">DMA CSR</text>
<path d="M274.2,204 L288.2,204" stroke="#5b6670" stroke-width="2"/>
<circle cx="375.6" cy="204" r="6.5" fill="#103525"/>
<circle cx="470" cy="204" r="6.5" fill="#103525"/>
<path d="M557.4,204 L571.4,204" stroke="#5b6670" stroke-width="2"/>
<circle cx="658.8" cy="204" r="6.5" fill="#103525"/>
<text class="t" x="30" y="251" text-anchor="start">WDT</text>
<path d="M274.2,246 L288.2,246" stroke="#5b6670" stroke-width="2"/>
<circle cx="375.6" cy="246" r="6.5" fill="#103525"/>
<circle cx="470" cy="246" r="6.5" fill="#103525"/>
<circle cx="564.4" cy="246" r="6.5" fill="#103525"/>
<circle cx="658.8" cy="246" r="6.5" fill="#103525"/>
<rect x="14" y="268" width="692" height="40" rx="3" fill="#f8f4eb"/>
<text class="t" x="30" y="293" text-anchor="start">Reset Ctrl</text>
<path d="M274.2,288 L288.2,288" stroke="#5b6670" stroke-width="2"/>
<circle cx="375.6" cy="288" r="6.5" fill="#103525"/>
<circle cx="470" cy="288" r="6.5" fill="#103525"/>
<circle cx="564.4" cy="288" r="6.5" fill="#103525"/>
<path d="M651.8,288 L665.8,288" stroke="#5b6670" stroke-width="2"/>
<text class="t" x="30" y="335" text-anchor="start">Crypto Periph</text>
<path d="M274.2,330 L288.2,330" stroke="#5b6670" stroke-width="2"/>
<circle cx="375.6" cy="330" r="6.5" fill="#103525"/>
<circle cx="470" cy="330" r="6.5" fill="#103525"/>
<circle cx="564.4" cy="330" r="6.5" fill="#103525"/>
<circle cx="658.8" cy="330" r="6.5" fill="#103525"/>
<rect x="14" y="352" width="692" height="40" rx="3" fill="#f8f4eb"/>
<text class="t" x="30" y="377" text-anchor="start">System Periph</text>
<path d="M274.2,372 L288.2,372" stroke="#5b6670" stroke-width="2"/>
<circle cx="375.6" cy="372" r="6.5" fill="#103525"/>
<circle cx="470" cy="372" r="6.5" fill="#103525"/>
<circle cx="564.4" cy="372" r="6.5" fill="#103525"/>
<path d="M651.8,372 L665.8,372" stroke="#5b6670" stroke-width="2"/>
<text class="t" x="30" y="419" text-anchor="start">IO Periph</text>
<path d="M274.2,414 L288.2,414" stroke="#5b6670" stroke-width="2"/>
<circle cx="375.6" cy="414" r="6.5" fill="#103525"/>
<circle cx="470" cy="414" r="6.5" fill="#103525"/>
<circle cx="564.4" cy="414" r="6.5" fill="#103525"/>
<circle cx="658.8" cy="414" r="6.5" fill="#103525"/>
<rect x="14" y="436" width="692" height="40" rx="3" fill="#f8f4eb"/>
<text class="t" x="30" y="461" text-anchor="start">Entropy Pool</text>
<path d="M274.2,456 L288.2,456" stroke="#5b6670" stroke-width="2"/>
<circle cx="375.6" cy="456" r="6.5" fill="#103525"/>
<circle cx="470" cy="456" r="6.5" fill="#103525"/>
<path d="M557.4,456 L571.4,456" stroke="#5b6670" stroke-width="2"/>
<circle cx="658.8" cy="456" r="6.5" fill="#103525"/>
<text class="t" x="30" y="503" text-anchor="start">AXI Extension</text>
<path d="M274.2,498 L288.2,498" stroke="#5b6670" stroke-width="2"/>
<circle cx="375.6" cy="498" r="6.5" fill="#103525"/>
<circle cx="470" cy="498" r="6.5" fill="#103525"/>
<circle cx="564.4" cy="498" r="6.5" fill="#103525"/>
<circle cx="658.8" cy="498" r="6.5" fill="#103525"/>
<text class="bs" x="14" y="544" text-anchor="start">Dedicated path, outside the crossbar</text>
<rect x="14" y="556" width="692" height="40" rx="3" fill="#f8f4eb"/>
<text class="t" x="30" y="581" text-anchor="start">Boot ROM</text>
<circle cx="281.2" cy="576" r="6.5" fill="#103525"/>
<circle cx="375.6" cy="576" r="6.5" fill="#103525"/>
<path d="M463,576 L477,576" stroke="#5b6670" stroke-width="2"/>
<path d="M557.4,576 L571.4,576" stroke="#5b6670" stroke-width="2"/>
<path d="M651.8,576 L665.8,576" stroke="#5b6670" stroke-width="2"/>
<circle cx="22" cy="625" r="6.5" fill="#103525"/>
<text class="s" x="38" y="630" text-anchor="start">Connected</text>
<path d="M134,625 L148,625" stroke="#5b6670" stroke-width="2"/>
<text class="s" x="158" y="630" text-anchor="start">Not connected</text>
</svg>
