<svg xmlns="http://www.w3.org/2000/svg" xmlns:xlink="http://www.w3.org/1999/xlink" version="1.1" data-diagram-type="ACTIVITY" style="width:465px;height:792px;background:#FFFFFF;" width="465px" height="792px" viewBox="0 0 465 792" zoomAndPan="magnify" preserveAspectRatio="none" contentStyleType="text/css"><?plantuml 1.2026.8?><defs/><g font-family="sans-serif" lengthAdjust="spacing"><ellipse cx="151.411" cy="25" rx="10" ry="10" fill="#222" style="stroke:#222;stroke-width:1;"/><rect x="27.115" y="55" width="248.592" height="61.906" fill="#F0F8E6" style="stroke:#181818;stroke-width:0.5;" rx="12.5" ry="12.5"/><text x="37.115" y="76.139" fill="#000" font-size="12" textLength="160.441">gates marked during boot:</text><text x="37.115" y="90.107" fill="#000" font-size="12" textLength="228.592">MANIFEST, CRYPTO, HASH, FUSELOCK</text><text x="37.115" y="104.076" fill="#000" font-size="12" textLength="224.953">(gate_ok bit set, gate_inv bit cleared)</text><rect x="18.323" y="136.906" width="266.176" height="117.781" fill="#F0F8E6" style="stroke:#181818;stroke-width:0.5;" rx="12.5" ry="12.5"/><text x="28.323" y="158.045" fill="#000" font-size="12" textLength="147.891">build volatile checks list:</text><text x="28.323" y="172.014" fill="#000" font-size="12" textLength="246.176">1. gate_ok/gate_inv match expected pair</text><text x="28.323" y="185.982" fill="#000" font-size="12" textLength="123.287">2. manifest locus (a)</text><text x="28.323" y="199.951" fill="#000" font-size="12" textLength="211.365">3. manifest locus (b) - independent</text><text x="28.323" y="213.92" fill="#000" font-size="12" textLength="95.549">4. fuse locks (a)</text><text x="28.323" y="227.889" fill="#000" font-size="12" textLength="183.627">5. fuse locks (b) - independent</text><text x="28.323" y="241.857" fill="#000" font-size="12" textLength="172.764">plus stack canary / stack-top</text><rect x="117.044" y="367.09" width="68.732" height="33.969" fill="#F0F8E6" style="stroke:#181818;stroke-width:0.5;" rx="12.5" ry="12.5"/><text x="127.044" y="388.229" fill="#000" font-size="12" textLength="48.732">seen++</text><polygon points="111.275,436.059,191.546,436.059,203.546,448.059,191.546,460.059,111.275,460.059,99.275,448.059,111.275,436.059" fill="#FDF6E3" style="stroke:#181818;stroke-width:0.5;stroke-linejoin:miter;stroke-miterlimit:10;"/><text x="155.411" y="470.269" fill="#000" font-size="11" textLength="19.008">yes</text><text x="111.275" y="451.867" fill="#000" font-size="11" textLength="80.271">seen == i+1 ?</text><text x="203.546" y="445.464" fill="#000" font-size="11" textLength="13.702">no</text><rect x="294.902" y="431.074" width="91.355" height="33.969" fill="#FFE0E0" style="stroke:#181818;stroke-width:0.5;" rx="12.5" ry="12.5"/><text x="304.902" y="452.213" fill="#000" font-size="12" textLength="71.355">halt 0xF004</text><polygon points="117.605,318.688,185.216,318.688,197.216,330.688,185.216,342.688,117.605,342.688,105.605,330.688,117.605,318.688" fill="#FDF6E3" style="stroke:#181818;stroke-width:0.5;stroke-linejoin:miter;stroke-miterlimit:10;"/><text x="155.411" y="352.898" fill="#000" font-size="11" textLength="19.008">yes</text><text x="117.605" y="334.496" fill="#000" font-size="11" textLength="67.611">check true ?</text><text x="197.216" y="328.093" fill="#000" font-size="11" textLength="13.702">no</text><rect x="288.572" y="313.703" width="91.355" height="33.969" fill="#FFE0E0" style="stroke:#181818;stroke-width:0.5;" rx="12.5" ry="12.5"/><text x="298.572" y="334.842" fill="#000" font-size="12" textLength="71.355">halt 0xF004</text><polygon points="86.813,274.688,216.009,274.688,228.009,286.688,216.009,298.688,86.813,298.688,74.813,286.688,86.813,274.688" fill="#FDF6E3" style="stroke:#181818;stroke-width:0.5;stroke-linejoin:miter;stroke-miterlimit:10;"/><text x="86.813" y="290.496" fill="#000" font-size="11" textLength="129.196">for each check, fail-fast</text><text x="15" y="284.093" fill="#000" font-size="11" textLength="59.813">all iterated</text><rect x="42.22" y="562.171" width="218.381" height="33.969" fill="#F0F8E6" style="stroke:#181818;stroke-width:0.5;" rx="12.5" ry="12.5"/><text x="52.22" y="583.31" fill="#000" font-size="12" textLength="198.381">release PMP fence for BL1 region</text><rect x="39.396" y="616.14" width="224.029" height="33.969" fill="#F0F8E6" style="stroke:#181818;stroke-width:0.5;" rx="12.5" ry="12.5"/><text x="49.396" y="637.279" fill="#000" font-size="12" textLength="204.029">copy BL1 image to TOC load_addr</text><rect x="39.261" y="670.109" width="224.299" height="47.938" fill="#F0F8E6" style="stroke:#181818;stroke-width:0.5;" rx="12.5" ry="12.5"/><text x="49.261" y="691.248" fill="#000" font-size="12" textLength="204.299">mepc &lt;- load_addr + entry_point,</text><text x="49.261" y="705.216" fill="#000" font-size="12" textLength="117.504">fence.i, fence, mret</text><rect x="98.561" y="738.046" width="105.699" height="33.969" fill="#E6F0F8" style="stroke:#181818;stroke-width:0.5;" rx="12.5" ry="12.5"/><text x="108.561" y="759.185" fill="#000" font-size="12" textLength="85.699">BL1 executing</text><polygon points="81.466,513.769,221.356,513.769,233.356,525.769,221.356,537.769,81.466,537.769,69.466,525.769,81.466,513.769" fill="#FDF6E3" style="stroke:#181818;stroke-width:0.5;stroke-linejoin:miter;stroke-miterlimit:10;"/><text x="155.411" y="547.979" fill="#000" font-size="11" textLength="19.008">yes</text><text x="81.466" y="529.577" fill="#000" font-size="11" textLength="139.89">i == seen == n_checks ?</text><text x="233.356" y="523.175" fill="#000" font-size="11" textLength="13.702">no</text><rect x="324.711" y="508.785" width="91.355" height="33.969" fill="#FFE0E0" style="stroke:#181818;stroke-width:0.5;" rx="12.5" ry="12.5"/><text x="334.711" y="529.923" fill="#000" font-size="12" textLength="71.355">halt 0xF004</text><line x1="151.411" y1="35" x2="151.411" y2="55" style="stroke:#181818;stroke-width:1;"/><polygon points="147.411,45,151.411,55,155.411,45,151.411,49" fill="#181818" style="stroke:#181818;stroke-width:1;stroke-linejoin:miter;stroke-miterlimit:10;"/><line x1="151.411" y1="116.906" x2="151.411" y2="136.906" style="stroke:#181818;stroke-width:1;"/><polygon points="147.411,126.906,151.411,136.906,155.411,126.906,151.411,130.906" fill="#181818" style="stroke:#181818;stroke-width:1;stroke-linejoin:miter;stroke-miterlimit:10;"/><line x1="151.411" y1="460.059" x2="151.411" y2="481.769" style="stroke:#181818;stroke-width:1;"/><line x1="151.411" y1="481.769" x2="430.067" y2="481.769" style="stroke:#181818;stroke-width:1;"/><polygon points="426.067,423.977,430.067,413.977,434.067,423.977,430.067,419.977" fill="#181818" style="stroke:#181818;stroke-width:1;stroke-linejoin:miter;stroke-miterlimit:10;"/><line x1="430.067" y1="286.688" x2="430.067" y2="481.769" style="stroke:#181818;stroke-width:1;"/><line x1="430.067" y1="286.688" x2="228.009" y2="286.688" style="stroke:#181818;stroke-width:1;"/><polygon points="238.009,282.688,228.009,286.688,238.009,290.688,234.009,286.688" fill="#181818" style="stroke:#181818;stroke-width:1;stroke-linejoin:miter;stroke-miterlimit:10;"/><line x1="203.546" y1="448.059" x2="294.902" y2="448.059" style="stroke:#181818;stroke-width:1;"/><polygon points="284.902,444.059,294.902,448.059,284.902,452.059,288.902,448.059" fill="#181818" style="stroke:#181818;stroke-width:1;stroke-linejoin:miter;stroke-miterlimit:10;"/><line x1="151.411" y1="401.059" x2="151.411" y2="436.059" style="stroke:#181818;stroke-width:1;"/><polygon points="147.411,426.059,151.411,436.059,155.411,426.059,151.411,430.059" fill="#181818" style="stroke:#181818;stroke-width:1;stroke-linejoin:miter;stroke-miterlimit:10;"/><line x1="151.411" y1="342.688" x2="151.411" y2="367.09" style="stroke:#181818;stroke-width:1;"/><polygon points="147.411,357.09,151.411,367.09,155.411,357.09,151.411,361.09" fill="#181818" style="stroke:#181818;stroke-width:1;stroke-linejoin:miter;stroke-miterlimit:10;"/><line x1="197.216" y1="330.688" x2="288.572" y2="330.688" style="stroke:#181818;stroke-width:1;"/><polygon points="278.572,326.688,288.572,330.688,278.572,334.688,282.572,330.688" fill="#181818" style="stroke:#181818;stroke-width:1;stroke-linejoin:miter;stroke-miterlimit:10;"/><line x1="151.411" y1="298.688" x2="151.411" y2="318.688" style="stroke:#181818;stroke-width:1;"/><polygon points="147.411,308.688,151.411,318.688,155.411,308.688,151.411,312.688" fill="#181818" style="stroke:#181818;stroke-width:1;stroke-linejoin:miter;stroke-miterlimit:10;"/><line x1="74.813" y1="286.688" x2="62.813" y2="286.688" style="stroke:#181818;stroke-width:1;"/><polygon points="58.813,409.977,62.813,419.977,66.813,409.977,62.813,413.977" fill="#181818" style="stroke:#181818;stroke-width:1;stroke-linejoin:miter;stroke-miterlimit:10;"/><line x1="62.813" y1="286.688" x2="62.813" y2="493.769" style="stroke:#181818;stroke-width:1;"/><line x1="62.813" y1="493.769" x2="151.411" y2="493.769" style="stroke:#181818;stroke-width:1;"/><line x1="151.411" y1="493.769" x2="151.411" y2="513.769" style="stroke:#181818;stroke-width:1;"/><polygon points="147.411,503.769,151.411,513.769,155.411,503.769,151.411,507.769" fill="#181818" style="stroke:#181818;stroke-width:1;stroke-linejoin:miter;stroke-miterlimit:10;"/><line x1="151.411" y1="254.688" x2="151.411" y2="274.688" style="stroke:#181818;stroke-width:1;"/><polygon points="147.411,264.688,151.411,274.688,155.411,264.688,151.411,268.688" fill="#181818" style="stroke:#181818;stroke-width:1;stroke-linejoin:miter;stroke-miterlimit:10;"/><line x1="151.411" y1="596.14" x2="151.411" y2="616.14" style="stroke:#181818;stroke-width:1;"/><polygon points="147.411,606.14,151.411,616.14,155.411,606.14,151.411,610.14" fill="#181818" style="stroke:#181818;stroke-width:1;stroke-linejoin:miter;stroke-miterlimit:10;"/><line x1="151.411" y1="650.109" x2="151.411" y2="670.109" style="stroke:#181818;stroke-width:1;"/><polygon points="147.411,660.109,151.411,670.109,155.411,660.109,151.411,664.109" fill="#181818" style="stroke:#181818;stroke-width:1;stroke-linejoin:miter;stroke-miterlimit:10;"/><line x1="151.411" y1="718.046" x2="151.411" y2="738.046" style="stroke:#181818;stroke-width:1;"/><polygon points="147.411,728.046,151.411,738.046,155.411,728.046,151.411,732.046" fill="#181818" style="stroke:#181818;stroke-width:1;stroke-linejoin:miter;stroke-miterlimit:10;"/><line x1="151.411" y1="537.769" x2="151.411" y2="562.171" style="stroke:#181818;stroke-width:1;"/><polygon points="147.411,552.171,151.411,562.171,155.411,552.171,151.411,556.171" fill="#181818" style="stroke:#181818;stroke-width:1;stroke-linejoin:miter;stroke-miterlimit:10;"/><line x1="233.356" y1="525.769" x2="324.711" y2="525.769" style="stroke:#181818;stroke-width:1;"/><polygon points="314.711,521.769,324.711,525.769,314.711,529.769,318.711,525.769" fill="#181818" style="stroke:#181818;stroke-width:1;stroke-linejoin:miter;stroke-miterlimit:10;"/><?plantuml-src VLF1RXen4BtxAqRAPH4BMPeKLK1I4HgKgab1XHvwGiOUizPwxPNj9V3tjNSfLKgLY-LvCs_cpOpj2gahQca9K-RbNlhZ0sN5pffQyvbHniALoCGd719t4Vb5qj9eVadWOeWtn7bgFHdjg4S79RK5Sk2rbNe7MsFyYBnClt-TFwxMASn-_5gk5oayJLTFASn_hXwV5xDl98dSZIbWApquz2aqWDJx1c4AgKNU6PFHjfQAmzuewgL2O3come6IBfGPzE6Kv_fCBwbdEU2XGkQ3h8fAIpxq0wobGET16LOxI6Y7t5oYsmxqG6gE5OP3UtBR1r4xZFwYPNryYrmmAXKIXG6n0XZLr1xXkZLxtbHZyfh7BX8Hfeaq26twIK5GgNg2EjyX0590qk3WROtmkGC-Hmt94Lrq0umSekvsnuqHewCDTtSWkuF_XACAUXDjMYlGSweyP8TvbjsE9vCh8J33xFx-vEOOvEOjKtCfoByPtkMVsIqtdAUMgL8WFTgmADuXKRMCalz8rvlJQi_wstBl53kLQiMTkXrP36yd0CkN9GZK327E-k5v01PtqkWuj14prR71P4bt2Dx0UZ4BAwLyGpctJKo95OD9xoyAtT2JjyTDPQJsQOXfylTbsbvIA2twXXjJum5PxSEVYAfn6F_Q6zLnFBy1?></g></svg>