<svg xmlns="http://www.w3.org/2000/svg" xmlns:xlink="http://www.w3.org/1999/xlink" version="1.1" data-diagram-type="ACTIVITY" style="width:423px;height:921px;background:#FFFFFF;" width="423px" height="921px" viewBox="0 0 423 921" zoomAndPan="magnify" preserveAspectRatio="none" contentStyleType="text/css"><?plantuml 1.2026.8?><defs/><g font-family="sans-serif" lengthAdjust="spacing"><ellipse cx="148.015" cy="25" rx="10" ry="10" fill="#222" style="stroke:#222;stroke-width:1;"/><rect x="53.962" y="55" width="188.105" height="33.969" fill="#E6F0F8" style="stroke:#181818;stroke-width:0.5;" rx="12.5" ry="12.5"/><text x="63.962" y="76.139" fill="#000" font-size="12" textLength="168.105">from part 2, a slot validated</text><rect x="16.344" y="98.969" width="263.342" height="377.719" fill="none" style="stroke:#888;stroke-width:1.5;"/><path d="M197.232,98.969 L197.232,105.938 L187.232,115.938 L16.344,115.938" style="stroke:#888;stroke-width:1.5;" fill="none"/><text x="19.344" y="111.107" fill="#000" font-size="12" textLength="170.889">One-shot state ([S25]-[S27])</text><rect x="40.31" y="132.938" width="215.41" height="33.969" fill="#F0F8E6" style="stroke:#181818;stroke-width:0.5;" rx="12.5" ry="12.5"/><text x="50.31" y="154.076" fill="#000" font-size="12" textLength="195.41">demotion decision (no write yet)</text><rect x="74.713" y="186.906" width="146.604" height="33.969" fill="#F0F8E6" style="stroke:#181818;stroke-width:0.5;" rx="12.5" ry="12.5"/><text x="84.713" y="208.045" fill="#000" font-size="12" textLength="126.604">BL2 pair -> bl0_state</text><rect x="54.894" y="240.875" width="186.242" height="33.969" fill="#F0F8E6" style="stroke:#181818;stroke-width:0.5;" rx="12.5" ry="12.5"/><text x="64.894" y="262.014" fill="#000" font-size="12" textLength="166.242">lock fuse secrets (SET-only)</text><rect x="77.476" y="294.844" width="141.078" height="33.969" fill="#F0F8E6" style="stroke:#181818;stroke-width:0.5;" rx="12.5" ry="12.5"/><text x="87.476" y="315.982" fill="#000" font-size="12" textLength="121.078">[S26] re-verify locks</text><rect x="45.964" y="348.813" width="204.102" height="47.938" fill="#F0F8E6" style="stroke:#181818;stroke-width:0.5;" rx="12.5" ry="12.5"/><text x="55.964" y="369.951" fill="#000" font-size="12" textLength="184.102">DEMOTE_1 &lt;- decision (+lock)</text><text x="55.964" y="383.92" fill="#000" font-size="12" textLength="178.207">-- last fuse state BL0 changes</text><rect x="26.344" y="416.75" width="243.342" height="47.938" fill="#F0F8E6" style="stroke:#181818;stroke-width:0.5;" rx="12.5" ry="12.5"/><text x="36.344" y="437.889" fill="#000" font-size="12" textLength="223.342">[S27] enroll boot-state measurement</text><text x="36.344" y="451.857" fill="#000" font-size="12" textLength="173.549">(soft PCR slot 1) -> bl0_state</text><rect x="16" y="486.688" width="387.041" height="414.734" fill="none" style="stroke:#888;stroke-width:1.5;"/><path d="M159.729,486.688 L159.729,493.656 L149.729,503.656 L16,503.656" style="stroke:#888;stroke-width:1.5;" fill="none"/><text x="19" y="498.826" fill="#000" font-size="12" textLength="133.729">Hand-off ([S28]-[S29])</text><rect x="52.919" y="520.656" width="190.191" height="47.938" fill="#F0F8E6" style="stroke:#181818;stroke-width:0.5;" rx="12.5" ry="12.5"/><text x="62.919" y="541.795" fill="#000" font-size="12" textLength="170.191">[S28] gate-ledger self-check</text><text x="62.919" y="555.764" fill="#000" font-size="12" textLength="127.143">(+ canary, stack top)</text><rect x="45.621" y="637.578" width="204.787" height="47.938" fill="#F0F8E6" style="stroke:#181818;stroke-width:0.5;" rx="12.5" ry="12.5"/><text x="55.621" y="658.717" fill="#000" font-size="12" textLength="163.277">release: rewrite BL1-region</text><text x="55.621" y="672.686" fill="#000" font-size="12" textLength="184.787">rule to executable (under RLB)</text><rect x="36" y="705.516" width="224.029" height="33.969" fill="#F0F8E6" style="stroke:#181818;stroke-width:0.5;" rx="12.5" ry="12.5"/><text x="46" y="726.654" fill="#000" font-size="12" textLength="204.029">copy BL1 image to TOC load_addr</text><rect x="58.462" y="759.484" width="179.105" height="33.969" fill="#F0F8E6" style="stroke:#181818;stroke-width:0.5;" rx="12.5" ry="12.5"/><text x="68.462" y="780.623" fill="#000" font-size="12" textLength="159.105">mepc; fence.i; fence; mret</text><rect x="95.165" y="813.453" width="105.699" height="33.969" fill="#E6F0F8" style="stroke:#181818;stroke-width:0.5;" rx="12.5" ry="12.5"/><text x="105.165" y="834.592" fill="#000" font-size="12" textLength="85.699">BL1 executing</text><ellipse cx="148.015" cy="878.422" rx="11" ry="11" fill="none" style="stroke:#222;stroke-width:1;"/><ellipse cx="148.015" cy="878.422" rx="6" ry="6" fill="#222" style="stroke:#222;stroke-width:1;"/><polygon points="90.133,588.594,205.896,588.594,217.896,600.594,205.896,612.594,90.133,612.594,78.133,600.594,90.133,588.594" fill="#FDF6E3" style="stroke:#181818;stroke-width:0.5;stroke-linejoin:miter;stroke-miterlimit:10;"/><text x="152.015" y="623.732" fill="#000" font-size="12" textLength="20.736">yes</text><text x="90.133" y="604.748" fill="#000" font-size="12" textLength="115.764">self-check passes ?</text><text x="217.896" y="597.764" fill="#000" font-size="12" textLength="14.947">no</text><rect x="299.686" y="583.609" width="91.355" height="33.969" fill="#FFE0E0" style="stroke:#181818;stroke-width:0.5;" rx="12.5" ry="12.5"/><text x="309.686" y="604.748" fill="#000" font-size="12" textLength="71.355">halt 0xF004</text><line x1="148.015" y1="35" x2="148.015" y2="55" style="stroke:#181818;stroke-width:1;"/><polygon points="144.015,45,148.015,55,152.015,45,148.015,49" fill="#181818" style="stroke:#181818;stroke-width:1;stroke-linejoin:miter;stroke-miterlimit:10;"/><line x1="148.015" y1="166.906" x2="148.015" y2="186.906" style="stroke:#181818;stroke-width:1;"/><polygon points="144.015,176.906,148.015,186.906,152.015,176.906,148.015,180.906" fill="#181818" style="stroke:#181818;stroke-width:1;stroke-linejoin:miter;stroke-miterlimit:10;"/><line x1="148.015" y1="220.875" x2="148.015" y2="240.875" style="stroke:#181818;stroke-width:1;"/><polygon points="144.015,230.875,148.015,240.875,152.015,230.875,148.015,234.875" fill="#181818" style="stroke:#181818;stroke-width:1;stroke-linejoin:miter;stroke-miterlimit:10;"/><line x1="148.015" y1="274.844" x2="148.015" y2="294.844" style="stroke:#181818;stroke-width:1;"/><polygon points="144.015,284.844,148.015,294.844,152.015,284.844,148.015,288.844" fill="#181818" style="stroke:#181818;stroke-width:1;stroke-linejoin:miter;stroke-miterlimit:10;"/><line x1="148.015" y1="328.813" x2="148.015" y2="348.813" style="stroke:#181818;stroke-width:1;"/><polygon points="144.015,338.813,148.015,348.813,152.015,338.813,148.015,342.813" fill="#181818" style="stroke:#181818;stroke-width:1;stroke-linejoin:miter;stroke-miterlimit:10;"/><line x1="148.015" y1="396.75" x2="148.015" y2="416.75" style="stroke:#181818;stroke-width:1;"/><polygon points="144.015,406.75,148.015,416.75,152.015,406.75,148.015,410.75" fill="#181818" style="stroke:#181818;stroke-width:1;stroke-linejoin:miter;stroke-miterlimit:10;"/><line x1="148.015" y1="88.969" x2="148.015" y2="132.938" style="stroke:#181818;stroke-width:1;"/><polygon points="144.015,122.938,148.015,132.938,152.015,122.938,148.015,126.938" fill="#181818" style="stroke:#181818;stroke-width:1;stroke-linejoin:miter;stroke-miterlimit:10;"/><line x1="148.015" y1="685.516" x2="148.015" y2="705.516" style="stroke:#181818;stroke-width:1;"/><polygon points="144.015,695.516,148.015,705.516,152.015,695.516,148.015,699.516" fill="#181818" style="stroke:#181818;stroke-width:1;stroke-linejoin:miter;stroke-miterlimit:10;"/><line x1="148.015" y1="739.484" x2="148.015" y2="759.484" style="stroke:#181818;stroke-width:1;"/><polygon points="144.015,749.484,148.015,759.484,152.015,749.484,148.015,753.484" fill="#181818" style="stroke:#181818;stroke-width:1;stroke-linejoin:miter;stroke-miterlimit:10;"/><line x1="148.015" y1="793.453" x2="148.015" y2="813.453" style="stroke:#181818;stroke-width:1;"/><polygon points="144.015,803.453,148.015,813.453,152.015,803.453,148.015,807.453" fill="#181818" style="stroke:#181818;stroke-width:1;stroke-linejoin:miter;stroke-miterlimit:10;"/><line x1="148.015" y1="847.422" x2="148.015" y2="867.422" style="stroke:#181818;stroke-width:1;"/><polygon points="144.015,857.422,148.015,867.422,152.015,857.422,148.015,861.422" fill="#181818" style="stroke:#181818;stroke-width:1;stroke-linejoin:miter;stroke-miterlimit:10;"/><line x1="148.015" y1="612.594" x2="148.015" y2="637.578" style="stroke:#181818;stroke-width:1;"/><polygon points="144.015,627.578,148.015,637.578,152.015,627.578,148.015,631.578" fill="#181818" style="stroke:#181818;stroke-width:1;stroke-linejoin:miter;stroke-miterlimit:10;"/><line x1="217.896" y1="600.594" x2="299.686" y2="600.594" style="stroke:#181818;stroke-width:1;"/><polygon points="289.686,596.594,299.686,600.594,289.686,604.594,293.686,600.594" fill="#181818" style="stroke:#181818;stroke-width:1;stroke-linejoin:miter;stroke-miterlimit:10;"/><line x1="148.015" y1="568.594" x2="148.015" y2="588.594" style="stroke:#181818;stroke-width:1;"/><polygon points="144.015,578.594,148.015,588.594,152.015,578.594,148.015,582.594" fill="#181818" style="stroke:#181818;stroke-width:1;stroke-linejoin:miter;stroke-miterlimit:10;"/><line x1="148.015" y1="464.688" x2="148.015" y2="520.656" style="stroke:#181818;stroke-width:1;"/><polygon points="144.015,510.656,148.015,520.656,152.015,510.656,148.015,514.656" fill="#181818" style="stroke:#181818;stroke-width:1;stroke-linejoin:miter;stroke-miterlimit:10;"/><?plantuml-src RLDDJnin4BtlhnZ1WKImQ9EsWIQ8gik7UaWB0cvLX8mzthNYjIFR2smh_dl7teMc7pb4JkRDcvdtPlQWj3Q0rFO9Dim5U3S7vHm-elFgGIFum082hvcfq0Cp0aADG3z5RgKyX6ysrCfKKAD3K3xR0uV1AHIGvn1fkaXH8RZMUB26um4m6T01WuOP9T67_Gthj6M2Eb2Ek3qyCgq45HQ7cLyhGvsn1Zxpe1vLw4h6rvMphH5dLbi7kxAGnpZx3_9SiSOQyM-2a3DyjvLmJQEheAmfhHFe1jXn-cp114hMwd1fJRXLFn0cqooZwLp8vjBPfbTmIWE2rwJgsnIBavDTdCKsJq-ppMijsBaocFkQaBtAe--tqm-hdBwFLkCT-9a1p0KsDe45SkNZOsGiF3b5-0x3U151vNBQQvUVmeCkxXDTYcZBro1RJqOY9sSyZ6ulxd9hTDUdKh7PYZpBoIebEuW9FaNEBxvUtLtSJ-0atog-7m5ZYfEzclamaAV-osNnkYclt4ShGEEirl10UvRtk0QPRnqsQ0B1HjxA0DTdDxrea_5VKxniA_PbMBoarN7IwkERLkalg2WhroWgsZ6FMkQyHhwEXVQ1CyDSTn3x9Ls2tIGH5D7zHfAItjEkVnh7LKzwntc9lsOwGF5yMHJlewDIOe45EHg30ecofYTgqcFKeH-I76eQ5-UaSUzQkPpa3YiQ9m5SIrSMBE0pyZQmU7CZsbHg_cPPflQ8XDjD5nD1DV6M27vtTGRnPkwP46v0DRZX2v18HtQeXiS26h9z04I6lWwTx1zB6SEUz8W36A5azl8B?></g></svg>