<svg xmlns="http://www.w3.org/2000/svg" xmlns:xlink="http://www.w3.org/1999/xlink" contentStyleType="text/css" data-diagram-type="ACTIVITY" height="460px" preserveAspectRatio="none" style="width:1021px;height:460px;background:#FFFFFF;" version="1.1" viewBox="0 0 1021 460" width="1021px" zoomAndPan="magnify"><?plantuml 1.2026.6?><defs/><g><ellipse cx="336.0957" cy="25" fill="#222222" rx="10" ry="10" style="stroke:#222222;stroke-width:1;"/><rect fill="#F0F8E6" height="33.9688" rx="12.5" ry="12.5" style="stroke:#181818;stroke-width:0.5;" width="161.5742" x="255.3086" y="55"/><text fill="#000000" font-family="sans-serif" font-size="12" lengthAdjust="spacing" textLength="141.5742" x="265.3086" y="76.1387">manifest fully validated</text><polygon fill="#FDF6E3" points="281.5334,108.9688,390.658,108.9688,402.658,120.9688,390.658,132.9688,281.5334,132.9688,269.5334,120.9688,281.5334,108.9688" style="stroke:#181818;stroke-width:0.5;stroke-linejoin:miter;stroke-miterlimit:10;"/><text fill="#000000" font-family="sans-serif" font-size="11" lengthAdjust="spacing" textLength="109.1245" x="281.5334" y="124.7769">LC == PROD_END ?</text><text fill="#000000" font-family="sans-serif" font-size="11" lengthAdjust="spacing" textLength="19.0083" x="250.5251" y="118.3745">yes</text><text fill="#000000" font-family="sans-serif" font-size="11" lengthAdjust="spacing" textLength="13.7017" x="402.658" y="118.3745">no</text><rect fill="#F0F8E6" height="33.9688" rx="12.5" ry="12.5" style="stroke:#181818;stroke-width:0.5;" width="220.5313" x="16" y="142.9688"/><text fill="#000000" font-family="sans-serif" font-size="12" lengthAdjust="spacing" textLength="200.5313" x="26" y="164.1074">DEMOTE_1 &lt;- demote=0, lock=1</text><rect fill="#F0F8E6" height="33.9688" rx="12.5" ry="12.5" style="stroke:#181818;stroke-width:0.5;" width="220.5313" x="16" y="211.9375"/><text fill="#000000" font-family="sans-serif" font-size="12" lengthAdjust="spacing" textLength="200.5313" x="26" y="233.0762">DEMOTE_2 &lt;- demote=0, lock=1</text><rect fill="#F0F8E6" height="33.9688" rx="12.5" ry="12.5" style="stroke:#181818;stroke-width:0.5;" width="182.2754" x="35.1279" y="280.9063"/><text fill="#000000" font-family="sans-serif" font-size="12" lengthAdjust="spacing" textLength="162.2754" x="45.1279" y="302.0449">never demote, both locked</text><polygon fill="#FDF6E3" points="480.3025,142.9688,651.5491,142.9688,663.5491,154.9688,651.5491,166.9688,480.3025,166.9688,468.3025,154.9688,480.3025,142.9688" style="stroke:#181818;stroke-width:0.5;stroke-linejoin:miter;stroke-miterlimit:10;"/><text fill="#000000" font-family="sans-serif" font-size="11" lengthAdjust="spacing" textLength="171.2466" x="480.3025" y="158.7769">BL1_DEMOTION_VALID (bit 0) ?</text><text fill="#000000" font-family="sans-serif" font-size="11" lengthAdjust="spacing" textLength="19.0083" x="449.2942" y="152.3745">yes</text><text fill="#000000" font-family="sans-serif" font-size="11" lengthAdjust="spacing" textLength="13.7017" x="663.5491" y="152.3745">no</text><rect fill="#F0F8E6" height="33.9688" rx="12.5" ry="12.5" style="stroke:#181818;stroke-width:0.5;" width="247.6309" x="246.5313" y="176.9688"/><text fill="#000000" font-family="sans-serif" font-size="12" lengthAdjust="spacing" textLength="227.6309" x="256.5313" y="198.1074">DEMOTE_1 &lt;- demote = bit 1, lock=1</text><polygon fill="#FDF6E3" points="653.7178,176.9688,869.292,176.9688,881.292,188.9688,869.292,200.9688,653.7178,200.9688,641.7178,188.9688,653.7178,176.9688" style="stroke:#181818;stroke-width:0.5;stroke-linejoin:miter;stroke-miterlimit:10;"/><text fill="#000000" font-family="sans-serif" font-size="11" lengthAdjust="spacing" textLength="215.5742" x="653.7178" y="192.7769">BL2 pair VALID and ENABLE (bits 3:2) ?</text><text fill="#000000" font-family="sans-serif" font-size="11" lengthAdjust="spacing" textLength="19.0083" x="622.7095" y="186.3745">yes</text><text fill="#000000" font-family="sans-serif" font-size="11" lengthAdjust="spacing" textLength="13.7017" x="881.292" y="186.3745">no</text><rect fill="#F0F8E6" height="47.9375" rx="12.5" ry="12.5" style="stroke:#181818;stroke-width:0.5;" width="215.1113" x="524.1621" y="210.9688"/><text fill="#000000" font-family="sans-serif" font-size="12" lengthAdjust="spacing" textLength="195.1113" x="534.1621" y="232.1074">DEMOTE_1 untouched, unlocked</text><text fill="#000000" font-family="sans-serif" font-size="12" lengthAdjust="spacing" textLength="90.4746" x="534.1621" y="246.0762">(BL2 applies it)</text><rect fill="#F0F8E6" height="47.9375" rx="12.5" ry="12.5" style="stroke:#181818;stroke-width:0.5;" width="220.5313" x="781.0264" y="210.9688"/><text fill="#000000" font-family="sans-serif" font-size="12" lengthAdjust="spacing" textLength="200.5313" x="791.0264" y="232.1074">DEMOTE_1 &lt;- demote=0, lock=1</text><text fill="#000000" font-family="sans-serif" font-size="12" lengthAdjust="spacing" textLength="140.7012" x="791.0264" y="246.0762">(closed, nothing asked)</text><polygon fill="#FDF6E3" points="761.5049,264.9063,773.5049,276.9063,761.5049,288.9063,749.5049,276.9063,761.5049,264.9063" style="stroke:#181818;stroke-width:0.5;stroke-linejoin:miter;stroke-miterlimit:10;"/><polygon fill="#FDF6E3" points="565.9258,294.9063,577.9258,306.9063,565.9258,318.9063,553.9258,306.9063,565.9258,294.9063" style="stroke:#181818;stroke-width:0.5;stroke-linejoin:miter;stroke-miterlimit:10;"/><rect fill="#F0F8E6" height="47.9375" rx="12.5" ry="12.5" style="stroke:#181818;stroke-width:0.5;" width="215.8672" x="457.9922" y="338.9063"/><text fill="#000000" font-family="sans-serif" font-size="12" lengthAdjust="spacing" textLength="195.8672" x="467.9922" y="360.0449">bl0_state.bl2_demotion_decision</text><text fill="#000000" font-family="sans-serif" font-size="12" lengthAdjust="spacing" textLength="157.9219" x="467.9922" y="374.0137">&lt;- BL2 VALID and ENABLE</text><rect fill="#F0F8E6" height="33.9688" rx="12.5" ry="12.5" style="stroke:#181818;stroke-width:0.5;" width="214.584" x="458.6338" y="406.8438"/><text fill="#000000" font-family="sans-serif" font-size="12" lengthAdjust="spacing" textLength="194.584" x="468.6338" y="427.9824">DEMOTE_2 never written by BL0</text><line style="stroke:#181818;stroke-width:1;" x1="336.0957" x2="336.0957" y1="35" y2="55"/><polygon fill="#181818" points="332.0957,45,336.0957,55,340.0957,45,336.0957,49" style="stroke:#181818;stroke-width:1;stroke-linejoin:miter;stroke-miterlimit:10;"/><line style="stroke:#181818;stroke-width:1;" x1="126.2656" x2="126.2656" y1="176.9375" y2="211.9375"/><polygon fill="#181818" points="122.2656,201.9375,126.2656,211.9375,130.2656,201.9375,126.2656,205.9375" style="stroke:#181818;stroke-width:1;stroke-linejoin:miter;stroke-miterlimit:10;"/><line style="stroke:#181818;stroke-width:1;" x1="126.2656" x2="126.2656" y1="245.9063" y2="280.9063"/><polygon fill="#181818" points="122.2656,270.9063,126.2656,280.9063,130.2656,270.9063,126.2656,274.9063" style="stroke:#181818;stroke-width:1;stroke-linejoin:miter;stroke-miterlimit:10;"/><line style="stroke:#181818;stroke-width:1;" x1="641.7178" x2="631.7178" y1="188.9688" y2="188.9688"/><line style="stroke:#181818;stroke-width:1;" x1="631.7178" x2="631.7178" y1="188.9688" y2="210.9688"/><polygon fill="#181818" points="627.7178,200.9688,631.7178,210.9688,635.7178,200.9688,631.7178,204.9688" style="stroke:#181818;stroke-width:1;stroke-linejoin:miter;stroke-miterlimit:10;"/><line style="stroke:#181818;stroke-width:1;" x1="881.292" x2="891.292" y1="188.9688" y2="188.9688"/><line style="stroke:#181818;stroke-width:1;" x1="891.292" x2="891.292" y1="188.9688" y2="210.9688"/><polygon fill="#181818" points="887.292,200.9688,891.292,210.9688,895.292,200.9688,891.292,204.9688" style="stroke:#181818;stroke-width:1;stroke-linejoin:miter;stroke-miterlimit:10;"/><line style="stroke:#181818;stroke-width:1;" x1="631.7178" x2="631.7178" y1="258.9063" y2="276.9063"/><line style="stroke:#181818;stroke-width:1;" x1="631.7178" x2="749.5049" y1="276.9063" y2="276.9063"/><polygon fill="#181818" points="739.5049,272.9063,749.5049,276.9063,739.5049,280.9063,743.5049,276.9063" style="stroke:#181818;stroke-width:1;stroke-linejoin:miter;stroke-miterlimit:10;"/><line style="stroke:#181818;stroke-width:1;" x1="891.292" x2="891.292" y1="258.9063" y2="276.9063"/><line style="stroke:#181818;stroke-width:1;" x1="891.292" x2="773.5049" y1="276.9063" y2="276.9063"/><polygon fill="#181818" points="783.5049,272.9063,773.5049,276.9063,783.5049,280.9063,779.5049,276.9063" style="stroke:#181818;stroke-width:1;stroke-linejoin:miter;stroke-miterlimit:10;"/><line style="stroke:#181818;stroke-width:1;" x1="468.3025" x2="370.3467" y1="154.9688" y2="154.9688"/><line style="stroke:#181818;stroke-width:1;" x1="370.3467" x2="370.3467" y1="154.9688" y2="176.9688"/><polygon fill="#181818" points="366.3467,166.9688,370.3467,176.9688,374.3467,166.9688,370.3467,170.9688" style="stroke:#181818;stroke-width:1;stroke-linejoin:miter;stroke-miterlimit:10;"/><line style="stroke:#181818;stroke-width:1;" x1="663.5491" x2="761.5049" y1="154.9688" y2="154.9688"/><line style="stroke:#181818;stroke-width:1;" x1="761.5049" x2="761.5049" y1="154.9688" y2="176.9688"/><polygon fill="#181818" points="757.5049,166.9688,761.5049,176.9688,765.5049,166.9688,761.5049,170.9688" style="stroke:#181818;stroke-width:1;stroke-linejoin:miter;stroke-miterlimit:10;"/><line style="stroke:#181818;stroke-width:1;" x1="370.3467" x2="370.3467" y1="210.9375" y2="306.9063"/><line style="stroke:#181818;stroke-width:1;" x1="370.3467" x2="553.9258" y1="306.9063" y2="306.9063"/><polygon fill="#181818" points="543.9258,302.9063,553.9258,306.9063,543.9258,310.9063,547.9258,306.9063" style="stroke:#181818;stroke-width:1;stroke-linejoin:miter;stroke-miterlimit:10;"/><line style="stroke:#181818;stroke-width:1;" x1="761.5049" x2="761.5049" y1="288.9063" y2="306.9063"/><line style="stroke:#181818;stroke-width:1;" x1="761.5049" x2="577.9258" y1="306.9063" y2="306.9063"/><polygon fill="#181818" points="587.9258,302.9063,577.9258,306.9063,587.9258,310.9063,583.9258,306.9063" style="stroke:#181818;stroke-width:1;stroke-linejoin:miter;stroke-miterlimit:10;"/><line style="stroke:#181818;stroke-width:1;" x1="565.9258" x2="565.9258" y1="318.9063" y2="338.9063"/><polygon fill="#181818" points="561.9258,328.9063,565.9258,338.9063,569.9258,328.9063,565.9258,332.9063" style="stroke:#181818;stroke-width:1;stroke-linejoin:miter;stroke-miterlimit:10;"/><line style="stroke:#181818;stroke-width:1;" x1="565.9258" x2="565.9258" y1="386.8438" y2="406.8438"/><polygon fill="#181818" points="561.9258,396.8438,565.9258,406.8438,569.9258,396.8438,565.9258,400.8438" style="stroke:#181818;stroke-width:1;stroke-linejoin:miter;stroke-miterlimit:10;"/><line style="stroke:#181818;stroke-width:1;" x1="269.5334" x2="126.2656" y1="120.9688" y2="120.9688"/><line style="stroke:#181818;stroke-width:1;" x1="126.2656" x2="126.2656" y1="120.9688" y2="142.9688"/><polygon fill="#181818" points="122.2656,132.9688,126.2656,142.9688,130.2656,132.9688,126.2656,136.9688" style="stroke:#181818;stroke-width:1;stroke-linejoin:miter;stroke-miterlimit:10;"/><line style="stroke:#181818;stroke-width:1;" x1="402.658" x2="565.9258" y1="120.9688" y2="120.9688"/><line style="stroke:#181818;stroke-width:1;" x1="565.9258" x2="565.9258" y1="120.9688" y2="142.9688"/><polygon fill="#181818" points="561.9258,132.9688,565.9258,142.9688,569.9258,132.9688,565.9258,136.9688" style="stroke:#181818;stroke-width:1;stroke-linejoin:miter;stroke-miterlimit:10;"/><line style="stroke:#181818;stroke-width:1;" x1="336.0957" x2="336.0957" y1="88.9688" y2="108.9688"/><polygon fill="#181818" points="332.0957,98.9688,336.0957,108.9688,340.0957,98.9688,336.0957,102.9688" style="stroke:#181818;stroke-width:1;stroke-linejoin:miter;stroke-miterlimit:10;"/><?plantuml-src XP7HQuCm4CRV_IiEzbAX6sgX33iPRVMXuDennbubcbYFnaJCjQF__Q9TcLqxzfGZz-NxVPSpErGDQraDyuBmW7HSi6AtRVLUyQMMkeMxqYiVnTGnLyeOMQqLltx0owcOE8POIqvOCuMbC0JbNieZ79X4paZmcOCbZD8bH16ylctYB5d7yEm2LKB1w2YCwm24SVAoUKyo7vxkWOjQauYyCKXTx29_DX04VmgKE8ZskpM6N5FLTxi0OA-95PKZf14mKhf3TgaMgP_rnglDElkOfwiOHZaIUEvLmfiP8O9ExW-331bdIW0DmnPE1AOu9Elv8arwc8596DpY3ObxHNfVL8AFRNaQwrlJkxEcaIWC8Bcp_luon3__UtOgf3OTGTc_GxK5PYpcRAWubixF6URIo-pcIJpaCiXwIzJA5WKQMrY99NNPVWzzkStJrZvR9BB3vqVxn1ikhCDz0G00?></g></svg>